<svg width="17" height="21" viewBox="0 0 17 21" fill="none" xmlns="http://www.w3.org/2000/svg">
<path fill-rule="evenodd" clip-rule="evenodd" d="M13.8391 11.6979L16.6848 17.8479C16.8606 18.2314 16.5648 18.66 16.1384 18.645L13.4748 18.555C13.3398 18.4757 13.1363 18.5871 12.9798 18.7971L11.5848 20.7514C11.3277 21.1114 10.7684 21.06 10.5841 20.6614L8.74985 16.6929L10.0806 13.815L10.267 13.7207C10.3248 13.6929 10.3934 13.6736 10.4598 13.6714L11.7927 13.6157C12.2063 13.5964 12.5877 13.3821 12.8106 13.0414L13.5263 11.9421C13.5606 11.8886 13.6098 11.8414 13.6677 11.805L13.8391 11.6979ZM8.49485 14.4621C8.69628 14.4621 8.89985 14.415 9.07985 14.3293L9.08199 14.3271L8.36628 15.8764L6.1527 20.6679C6.05413 20.8843 5.83985 21 5.62556 21C5.4477 21 5.2677 20.9207 5.15199 20.7579L3.75699 18.8036C3.6477 18.6514 3.47199 18.5614 3.28342 18.5614H3.26199L0.598418 18.6514H0.57699C0.161275 18.6514 -0.121582 18.2293 0.0519898 17.8543L2.95128 11.58L3.31985 11.8071C3.37556 11.8393 3.42485 11.8886 3.46128 11.9443L4.17699 13.0436C4.39985 13.3843 4.78128 13.5986 5.19485 13.6179L6.52985 13.6736C6.59628 13.6757 6.6627 13.6929 6.7227 13.7229L7.57556 14.1536L7.9077 14.3229C8.0877 14.415 8.29128 14.4621 8.49485 14.4621ZM2.23342 8.78357C2.22699 8.61857 2.18413 8.46 2.10485 8.31214L1.49199 7.15286C1.40413 6.99 1.40413 6.79714 1.49199 6.63429L2.10699 5.47714C2.18413 5.33143 2.22913 5.17071 2.23556 5.00571L2.29342 3.70286C2.30199 3.51643 2.4027 3.34929 2.56128 3.25071L3.68628 2.55C3.8277 2.46214 3.94985 2.34429 4.03985 2.205L4.7577 1.10571C4.86056 0.949286 5.02985 0.852857 5.22056 0.844286L6.55556 0.788572C6.7227 0.782143 6.8877 0.739286 7.0377 0.662143L8.22485 0.0621428C8.30842 0.0192857 8.40056 0 8.49056 0C8.58056 0 8.6727 0.0192857 8.75628 0.0621428L9.94342 0.662143C10.0934 0.739286 10.2563 0.782143 10.4256 0.788572L11.7563 0.842143C11.947 0.850714 12.1184 0.947143 12.2191 1.10357L12.9348 2.20286C13.0248 2.34 13.1448 2.46 13.2884 2.54786L14.4156 3.24857C14.5741 3.34929 14.6748 3.51643 14.6834 3.70071L14.7413 5.00143C14.7477 5.16643 14.7906 5.32714 14.8698 5.47286L15.4806 6.63C15.5684 6.79071 15.5684 6.98571 15.4806 7.14857L14.8656 8.30571C14.7884 8.45143 14.7434 8.61214 14.737 8.77714L14.6791 10.08C14.6706 10.2664 14.5698 10.4336 14.4113 10.5321L13.5413 11.0721L13.2863 11.2307C13.1448 11.3186 13.0227 11.4364 12.9327 11.5757L12.217 12.675C12.1141 12.8293 11.9427 12.9279 11.7541 12.9364L10.4491 12.9921L10.4191 12.9943C10.2863 13.0007 10.1534 13.0307 10.0291 13.08C9.99699 13.0907 9.967 13.1057 9.937 13.1207L9.93699 13.1207L9.53413 13.3243L8.74985 13.7207C8.66628 13.7636 8.57413 13.7829 8.48413 13.7829C8.39413 13.7829 8.30199 13.7636 8.21842 13.7207L7.10628 13.1571L7.03556 13.1207C6.88556 13.0436 6.7227 13.0007 6.55342 12.9943L5.21842 12.9386C5.0277 12.93 4.85628 12.8336 4.75556 12.6771L4.0377 11.5779C3.9477 11.4407 3.8277 11.3207 3.68413 11.2329L3.23413 10.9543L2.93842 10.7721L2.6427 10.59L2.55913 10.5386C2.40056 10.4379 2.29985 10.2707 2.29128 10.0864L2.23342 8.78357ZM8.37913 10.4979C10.2786 10.4979 11.8184 8.9581 11.8184 7.05863C11.8184 5.15917 10.2786 3.61935 8.37913 3.61935C6.47967 3.61935 4.93985 5.15917 4.93985 7.05863C4.93985 8.9581 6.47967 10.4979 8.37913 10.4979Z" fill="black"/>
</svg>
