<svg width="37" height="46" viewBox="0 0 37 46" fill="none" xmlns="http://www.w3.org/2000/svg">
<path fill-rule="evenodd" clip-rule="evenodd" d="M30.3143 25.6239L36.5478 39.0953C36.9327 39.9355 36.2849 40.8743 35.3508 40.8414L29.5163 40.6443C29.2206 40.4706 28.7747 40.7147 28.432 41.1747L25.3763 45.4555C24.8131 46.2441 23.588 46.1314 23.1843 45.2584L19.1663 36.5653L22.0812 30.2614L22.4896 30.0549C22.6163 29.9939 22.7665 29.9516 22.912 29.9469L25.8316 29.8249C26.7376 29.7827 27.5731 29.3133 28.0612 28.5669L29.629 26.159C29.7041 26.0416 29.812 25.9384 29.9388 25.8586L30.3143 25.6239ZM18.6078 31.679C19.049 31.679 19.4949 31.5757 19.8892 31.388L19.8939 31.3833L18.3261 34.7769L13.4774 45.2724C13.2614 45.7465 12.792 46 12.3227 46C11.9331 46 11.5388 45.8263 11.2853 45.4696L8.2296 41.1888C7.99021 40.8555 7.60531 40.6584 7.19225 40.6584H7.14531L1.31082 40.8555H1.26388C0.35327 40.8555 -0.266322 39.9308 0.113882 39.1094L6.4647 25.3657L7.27204 25.8633C7.39409 25.9337 7.50205 26.0416 7.58184 26.1637L9.1496 28.5716C9.63776 29.318 10.4733 29.7873 11.3792 29.8296L14.3035 29.9516C14.449 29.9563 14.5945 29.9939 14.7259 30.0596L16.5941 31.0031L17.3216 31.3739C17.7159 31.5757 18.1618 31.679 18.6078 31.679ZM4.89225 19.2402C4.87817 18.8788 4.78429 18.5314 4.61062 18.2076L3.26817 15.6682C3.07572 15.3114 3.07572 14.889 3.26817 14.5322L4.61531 11.9976C4.78429 11.6784 4.88286 11.3263 4.89694 10.9649L5.02368 8.11102C5.04245 7.70265 5.26307 7.33653 5.61041 7.12061L8.0747 5.58571C8.38449 5.39327 8.65205 5.1351 8.84919 4.83L10.4216 2.42204C10.6469 2.07939 11.0178 1.86816 11.4355 1.84939L14.3598 1.72735C14.7259 1.71327 15.0874 1.61939 15.4159 1.45041L18.0163 0.136122C18.1994 0.0422449 18.4012 0 18.5984 0C18.7955 0 18.9973 0.0422449 19.1804 0.136122L21.7808 1.45041C22.1094 1.61939 22.4661 1.71327 22.8369 1.72735L25.7518 1.84469C26.1696 1.86347 26.5451 2.07469 26.7657 2.41735L28.3335 4.82531C28.5306 5.12571 28.7935 5.38857 29.108 5.58102L31.5769 7.11592C31.9243 7.33653 32.1449 7.70265 32.1637 8.10633L32.2904 10.9555C32.3045 11.3169 32.3984 11.669 32.572 11.9882L33.9098 14.5229C34.1022 14.8749 34.1022 15.302 33.9098 15.6588L32.5627 18.1935C32.3937 18.5127 32.2951 18.8647 32.281 19.2261L32.1543 22.08C32.1355 22.4884 31.9149 22.8545 31.5676 23.0704L29.6618 24.2533L29.1033 24.6006C28.7935 24.7931 28.5259 25.0512 28.3288 25.3563L26.761 27.7643C26.5357 28.1022 26.1602 28.3182 25.7471 28.3369L22.8886 28.459L22.8229 28.4637C22.5318 28.4778 22.2408 28.5435 21.9686 28.6514C21.8982 28.6749 21.8325 28.7078 21.7667 28.7406L20.8843 29.1865L19.1663 30.0549C18.9833 30.1488 18.7814 30.191 18.5843 30.191C18.3871 30.191 18.1853 30.1488 18.0022 30.0549L15.5661 28.8204L15.4112 28.7406C15.0827 28.5716 14.7259 28.4778 14.3551 28.4637L11.4308 28.3416C11.0131 28.3229 10.6376 28.1116 10.4169 27.769L8.84449 25.361C8.64735 25.0606 8.38449 24.7978 8.07 24.6053L7.08429 23.9951L6.43654 23.5961L5.78878 23.1971L5.60572 23.0845C5.25837 22.8639 5.03776 22.4978 5.01898 22.0941L4.89225 19.2402ZM18.3543 22.9954C22.515 22.9954 25.8879 19.6225 25.8879 15.4617C25.8879 11.301 22.515 7.92805 18.3543 7.92805C14.1935 7.92805 10.8206 11.301 10.8206 15.4617C10.8206 19.6225 14.1935 22.9954 18.3543 22.9954Z" fill="#56B8CA"/>
</svg>
