<svg width="36" height="31" viewBox="0 0 36 31" fill="none" xmlns="http://www.w3.org/2000/svg">
<path fill-rule="evenodd" clip-rule="evenodd" d="M8.88736 22.3457L8.29408 21.1143C7.47513 19.4146 7.01497 17.5076 7.01497 15.486C7.01497 8.31404 12.829 2.5 20.001 2.5C27.173 2.5 32.987 8.31404 32.987 15.486C32.987 22.658 27.173 28.4721 20.001 28.4721C17.9504 28.4721 16.0175 27.9986 14.2993 27.1573L13.6296 26.8294L12.8898 26.9219L5.50302 27.8452L8.17102 23.5097L8.88736 22.3457ZM2.32295 28.2428L0.643311 30.9722L3.82338 30.5747L13.1999 29.4026C15.2529 30.4078 17.561 30.9721 20.001 30.9721C28.5537 30.9721 35.487 24.0387 35.487 15.486C35.487 6.93333 28.5537 0 20.001 0C11.4483 0 4.51497 6.93333 4.51497 15.486C4.51497 17.8913 5.06334 20.1686 6.04188 22.1995L2.32295 28.2428Z" fill="black" fill-opacity="0.8"/>
</svg>
