<svg width="262" height="56" viewBox="0 0 262 56" fill="none" xmlns="http://www.w3.org/2000/svg">
<path d="M61.3281 39.7969H71.6094V43H57.5V22.0938H71.0469V25.2969H61.3281V30.7031H69.6719V33.9062H61.3281V39.7969ZM87.2488 37C87.2488 36.4688 87.1185 36.0417 86.8581 35.7188C86.5977 35.3854 86.2435 35.1146 85.7956 34.9062C85.3477 34.6979 84.8425 34.5312 84.28 34.4062C83.7279 34.2708 83.1446 34.1406 82.53 34.0156C81.7175 33.8385 80.9415 33.6302 80.2019 33.3906C79.4623 33.1406 78.8113 32.8021 78.2488 32.375C77.6863 31.9375 77.2383 31.3854 76.905 30.7188C76.5717 30.0521 76.405 29.2188 76.405 28.2188C76.405 27.1146 76.5977 26.1562 76.9831 25.3438C77.3685 24.5208 77.8894 23.8438 78.5456 23.3125C79.2123 22.7708 79.9883 22.3698 80.8738 22.1094C81.7696 21.8385 82.7748 21.7031 83.8894 21.7031C85.004 21.7031 86.1238 21.8125 87.2488 22.0312C88.3738 22.25 89.3425 22.5312 90.155 22.875V26.1562C89.0717 25.7292 88.03 25.4219 87.03 25.2344C86.0404 25.0365 85.1081 24.9375 84.2331 24.9375C82.9727 24.9375 81.9988 25.1667 81.3113 25.625C80.6342 26.0833 80.2956 26.7708 80.2956 27.6875C80.2956 28.2188 80.405 28.6562 80.6238 29C80.8529 29.3438 81.1602 29.6302 81.5456 29.8594C81.931 30.0781 82.3738 30.2552 82.8738 30.3906C83.3738 30.526 83.905 30.651 84.4675 30.7656C85.3529 30.9531 86.1967 31.1719 86.9988 31.4219C87.8113 31.6615 88.53 32 89.155 32.4375C89.78 32.875 90.2748 33.4479 90.6394 34.1562C91.004 34.8542 91.1863 35.75 91.1863 36.8438C91.1863 37.9688 90.9779 38.9427 90.5613 39.7656C90.1446 40.5885 89.5508 41.2708 88.78 41.8125C88.0196 42.3438 87.0925 42.7396 85.9988 43C84.905 43.2604 83.7071 43.3906 82.405 43.3906C81.2696 43.3906 80.1498 43.276 79.0456 43.0469C77.9519 42.8281 77.0404 42.5156 76.3113 42.1094V38.875C77.3425 39.3229 78.3477 39.651 79.3269 39.8594C80.306 40.0573 81.3165 40.1562 82.3581 40.1562C82.9623 40.1562 83.556 40.1094 84.1394 40.0156C84.7227 39.9115 85.2435 39.7396 85.7019 39.5C86.1706 39.2604 86.5456 38.9375 86.8269 38.5312C87.1081 38.1146 87.2488 37.6042 87.2488 37ZM109.716 35.0156H105.029V31.8125H113.544V42.3594C113.232 42.474 112.831 42.5938 112.341 42.7188C111.862 42.8438 111.32 42.9531 110.716 43.0469C110.123 43.151 109.508 43.2344 108.873 43.2969C108.237 43.3594 107.607 43.3906 106.982 43.3906C105.107 43.3906 103.466 43.1406 102.06 42.6406C100.664 42.1302 99.4975 41.4167 98.56 40.5C97.6329 39.5833 96.935 38.4948 96.4663 37.2344C96.0079 35.9635 95.7788 34.5625 95.7788 33.0312C95.7788 31.9479 95.8985 30.9167 96.1381 29.9375C96.3881 28.9479 96.7475 28.0365 97.2163 27.2031C97.6954 26.3594 98.2735 25.599 98.9506 24.9219C99.6277 24.2448 100.399 23.6667 101.263 23.1875C102.138 22.7083 103.091 22.3438 104.123 22.0938C105.164 21.8333 106.279 21.7031 107.466 21.7031C108.518 21.7031 109.518 21.7812 110.466 21.9375C111.414 22.0833 112.19 22.2656 112.794 22.4844V25.7344C111.982 25.474 111.159 25.276 110.326 25.1406C109.503 25.0052 108.669 24.9375 107.826 24.9375C106.69 24.9375 105.628 25.1094 104.638 25.4531C103.649 25.7865 102.789 26.2865 102.06 26.9531C101.341 27.6094 100.774 28.4219 100.357 29.3906C99.9402 30.3594 99.7319 31.4792 99.7319 32.75C99.7423 35.2188 100.388 37.0729 101.669 38.3125C102.951 39.5417 104.768 40.1562 107.123 40.1562C107.56 40.1562 108.013 40.1354 108.482 40.0938C108.951 40.0417 109.362 39.9792 109.716 39.9062V35.0156ZM130.104 43H127.558V22.0938H133.354C134.219 22.0938 135.016 22.1458 135.745 22.25C136.485 22.3542 137.162 22.5156 137.776 22.7344C139.026 23.1823 139.974 23.8542 140.62 24.75C141.266 25.6354 141.589 26.7292 141.589 28.0312C141.589 29.0938 141.375 30.0312 140.948 30.8438C140.531 31.6458 139.922 32.3177 139.12 32.8594C138.318 33.401 137.339 33.8125 136.183 34.0938C135.037 34.3646 133.735 34.5 132.276 34.5C131.578 34.5 130.854 34.4688 130.104 34.4062V43ZM130.104 32.0781C130.448 32.1198 130.808 32.151 131.183 32.1719C131.558 32.1927 131.912 32.2031 132.245 32.2031C133.443 32.2031 134.464 32.1094 135.308 31.9219C136.151 31.7344 136.839 31.4635 137.37 31.1094C137.901 30.7448 138.287 30.3073 138.526 29.7969C138.766 29.276 138.886 28.6875 138.886 28.0312C138.886 27.2188 138.688 26.5521 138.292 26.0312C137.906 25.5104 137.354 25.1146 136.636 24.8438C136.188 24.6771 135.672 24.5625 135.089 24.5C134.505 24.4271 133.828 24.3906 133.058 24.3906H130.104V32.0781ZM149.634 34.3438V43H147.088V22.0938H152.509C153.426 22.0938 154.202 22.1302 154.838 22.2031C155.483 22.2656 156.072 22.3698 156.603 22.5156C158.061 22.9115 159.176 23.5885 159.947 24.5469C160.718 25.4948 161.103 26.6823 161.103 28.1094C161.103 28.9531 160.968 29.7083 160.697 30.375C160.426 31.0417 160.046 31.6198 159.556 32.1094C159.067 32.599 158.478 33 157.791 33.3125C157.114 33.625 156.358 33.8542 155.525 34V34.0625L162.353 43H159.15L152.713 34.3438H149.634ZM149.634 24.3906V32.0469H152.15C152.931 32.0469 153.598 32.0208 154.15 31.9688C154.702 31.9167 155.197 31.8229 155.634 31.6875C156.52 31.4167 157.202 30.9844 157.681 30.3906C158.16 29.7969 158.4 29.0208 158.4 28.0625C158.39 27.1667 158.16 26.4479 157.713 25.9062C157.265 25.3542 156.645 24.9583 155.853 24.7188C155.478 24.6042 155.03 24.5208 154.509 24.4688C153.989 24.4167 153.327 24.3906 152.525 24.3906H149.634ZM183.461 32.5625C183.461 31.1562 183.279 29.9167 182.914 28.8438C182.55 27.7708 182.045 26.875 181.399 26.1562C180.763 25.4375 180.008 24.8958 179.133 24.5312C178.269 24.1562 177.336 23.9688 176.336 23.9688C175.336 23.9688 174.399 24.1562 173.524 24.5312C172.659 24.8958 171.904 25.4375 171.258 26.1562C170.623 26.875 170.123 27.7708 169.758 28.8438C169.394 29.9167 169.211 31.1562 169.211 32.5625C169.211 33.9688 169.394 35.2083 169.758 36.2812C170.133 37.3438 170.638 38.2344 171.274 38.9531C171.92 39.6719 172.675 40.2135 173.539 40.5781C174.414 40.9427 175.357 41.125 176.368 41.125C177.368 41.125 178.295 40.9427 179.149 40.5781C180.013 40.2135 180.763 39.6719 181.399 38.9531C182.045 38.2344 182.55 37.3438 182.914 36.2812C183.279 35.2083 183.461 33.9688 183.461 32.5625ZM186.149 32.5625C186.149 34.1458 185.92 35.599 185.461 36.9219C185.003 38.2448 184.347 39.3854 183.493 40.3438C182.638 41.3021 181.607 42.0521 180.399 42.5938C179.201 43.125 177.857 43.3906 176.368 43.3906C174.826 43.3906 173.446 43.125 172.227 42.5938C171.008 42.0521 169.977 41.3021 169.133 40.3438C168.289 39.3854 167.644 38.2448 167.196 36.9219C166.748 35.599 166.524 34.1458 166.524 32.5625C166.524 30.9688 166.753 29.5104 167.211 28.1875C167.68 26.8542 168.336 25.7083 169.18 24.75C170.034 23.7917 171.065 23.0469 172.274 22.5156C173.482 21.974 174.836 21.7031 176.336 21.7031C177.868 21.7031 179.237 21.974 180.446 22.5156C181.664 23.0469 182.696 23.7917 183.539 24.75C184.383 25.7083 185.029 26.8542 185.477 28.1875C185.925 29.5104 186.149 30.9688 186.149 32.5625ZM195.288 22.0938H197.835V38.2031C197.835 39.0677 197.705 39.8229 197.444 40.4688C197.184 41.1146 196.809 41.6562 196.319 42.0938C195.84 42.5208 195.262 42.8438 194.585 43.0625C193.908 43.2812 193.148 43.3906 192.304 43.3906C191.585 43.3802 190.976 43.3177 190.476 43.2031C189.986 43.099 189.616 42.9896 189.366 42.875V40.625C189.752 40.7812 190.168 40.9062 190.616 41C191.075 41.0833 191.564 41.125 192.085 41.125C192.554 41.125 192.986 41.0729 193.382 40.9688C193.778 40.8646 194.116 40.6875 194.398 40.4375C194.679 40.1875 194.898 39.8542 195.054 39.4375C195.21 39.0208 195.288 38.5052 195.288 37.8906V22.0938ZM206.912 40.7031H217.631V43H204.365V22.0938H217.053V24.3906H206.912V31.1406H215.928V33.4375H206.912V40.7031ZM233.458 23.9688C232.301 23.9688 231.218 24.1562 230.208 24.5312C229.208 24.8958 228.338 25.4479 227.598 26.1875C226.859 26.9167 226.275 27.8281 225.848 28.9219C225.421 30.0052 225.208 31.2708 225.208 32.7188C225.208 34.1562 225.405 35.4062 225.801 36.4688C226.197 37.5208 226.76 38.3958 227.489 39.0938C228.218 39.7812 229.093 40.2917 230.114 40.625C231.145 40.9583 232.291 41.125 233.551 41.125C233.895 41.125 234.26 41.1094 234.645 41.0781C235.03 41.0365 235.416 40.9844 235.801 40.9219C236.197 40.849 236.577 40.7708 236.942 40.6875C237.317 40.5938 237.65 40.4948 237.942 40.3906V42.6406C237.327 42.8802 236.614 43.0625 235.801 43.1875C234.989 43.3229 234.155 43.3906 233.301 43.3906C231.562 43.3906 230.02 43.151 228.676 42.6719C227.333 42.1823 226.202 41.4844 225.286 40.5781C224.379 39.6719 223.692 38.5677 223.223 37.2656C222.754 35.9531 222.52 34.4688 222.52 32.8125C222.52 31.1875 222.765 29.6927 223.254 28.3281C223.754 26.9635 224.468 25.7917 225.395 24.8125C226.333 23.8333 227.463 23.0729 228.786 22.5312C230.119 21.9792 231.614 21.7031 233.27 21.7031C233.708 21.7031 234.14 21.724 234.567 21.7656C234.994 21.7969 235.4 21.849 235.786 21.9219C236.181 21.9844 236.546 22.0625 236.879 22.1562C237.213 22.25 237.499 22.349 237.739 22.4531V24.7031C237.114 24.4948 236.431 24.3229 235.692 24.1875C234.952 24.0417 234.208 23.9688 233.458 23.9688ZM250.956 43H248.409V24.3906H241.425V22.0938H257.941V24.3906H250.956V43Z" fill="#3A7F0D"/>
<path d="M28.8193 0C28.8193 0 33.4501 11.3289 13.6035 18.9384C2.81924 23.0721 -5.46367 33.667 4.42612 50.0336C5.24516 42.718 8.75713 26.5881 23.8584 22.9074C23.8584 22.9074 9.80305 28.163 8.56144 51.9534C15.7837 52.9674 32.722 53.6488 37.7509 38.9497C44.3915 19.5289 28.8193 0 28.8193 0Z" fill="#3A7F0D"/>
<path d="M8.56799 51.8544C23.9002 45.7354 35.0563 31.4008 36.596 14.2888C33.4615 5.83391 28.8193 0 28.8193 0C28.8193 0 33.4501 11.3289 13.6035 18.9384C2.81924 23.0721 -5.46367 33.667 4.42612 50.0336C5.24516 42.718 8.75713 26.5881 23.8584 22.9074C23.8576 22.9075 9.84401 28.1501 8.56799 51.8544Z" fill="#49A010"/>
<path d="M2.89623 19.3161C3.68784 19.3161 4.32957 18.6744 4.32957 17.8828C4.32957 17.0912 3.68784 16.4495 2.89623 16.4495C2.10462 16.4495 1.46289 17.0912 1.46289 17.8828C1.46289 18.6744 2.10462 19.3161 2.89623 19.3161Z" fill="#3A7F0D"/>
<path d="M7.40072 17.4731C7.96614 17.4731 8.4245 17.0147 8.4245 16.4493C8.4245 15.8839 7.96614 15.4255 7.40072 15.4255C6.83531 15.4255 6.37695 15.8839 6.37695 16.4493C6.37695 17.0147 6.83531 17.4731 7.40072 17.4731Z" fill="#49A010"/>
<path d="M6.47959 9.28292C7.89312 9.28292 9.03902 8.13702 9.03902 6.72349C9.03902 5.30996 7.89312 4.16406 6.47959 4.16406C5.06606 4.16406 3.92017 5.30996 3.92017 6.72349C3.92017 8.13702 5.06606 9.28292 6.47959 9.28292Z" fill="#49A010"/>
<path d="M14.3625 13.3781C14.8148 13.3781 15.1815 13.0114 15.1815 12.559C15.1815 12.1067 14.8148 11.74 14.3625 11.74C13.9102 11.74 13.5435 12.1067 13.5435 12.559C13.5435 13.0114 13.9102 13.3781 14.3625 13.3781Z" fill="#49A010"/>
<path d="M21.2229 10.3066C22.5233 10.3066 23.5776 9.25232 23.5776 7.95186C23.5776 6.6514 22.5233 5.59717 21.2229 5.59717C19.9224 5.59717 18.8682 6.6514 18.8682 7.95186C18.8682 9.25232 19.9224 10.3066 21.2229 10.3066Z" fill="#49A010"/>
</svg>
