<svg width="55" height="55" viewBox="0 0 55 55" fill="none" xmlns="http://www.w3.org/2000/svg">
<path d="M28.7486 8.57726C28.4055 7.98575 27.8022 7.68994 27.2106 7.68994C26.6191 7.68994 26.0156 7.98575 25.6725 8.57726L16.4447 24.5605C15.3562 26.4297 14.7883 28.5828 14.7883 30.7597C14.7883 37.6096 20.3605 43.1819 27.2106 43.1819C34.0606 43.1819 39.6328 37.6097 39.6328 30.7597C39.6328 26.4534 38.6507 25.7199 28.7486 8.57726Z" fill="#56B8CA"/>
<path d="M54.421 27.2105C54.421 42.2118 42.2117 54.421 27.2105 54.421C19.9111 54.421 13.0018 51.4871 7.93832 46.3999V48.5057C7.93832 49.4876 7.14581 50.2803 6.16368 50.2803C5.18177 50.2803 4.38905 49.4877 4.38905 48.5057V41.7859C4.15244 40.6145 5.09897 39.6327 6.16368 39.6327H13.2621C14.2441 39.6327 15.0368 40.4253 15.0368 41.4074C15.0368 42.3893 14.2443 43.182 13.2621 43.182H9.78396C14.2322 48.0444 20.5262 50.872 27.2105 50.872C40.2598 50.872 50.8719 40.2598 50.8719 27.2106C50.8719 24.9627 50.5525 22.7386 49.9372 20.6091C49.6651 19.6626 50.1976 18.6806 51.144 18.4085C52.0786 18.1364 53.0724 18.6806 53.3446 19.6152C54.0541 22.076 54.421 24.6314 54.421 27.2105Z" fill="#56B8CA"/>
<path d="M50.2803 5.91531V13.0138C50.2803 13.9602 49.5822 14.7884 48.3165 14.7884C48.3048 14.7884 48.3048 14.7884 48.3048 14.7884H41.4073C40.4253 14.7884 39.6327 13.9958 39.6327 13.0138C39.6327 12.0317 40.4252 11.2391 41.4073 11.2391H44.6371C40.1888 6.37672 33.8949 3.54917 27.2105 3.54917C14.1613 3.54917 3.54917 14.1613 3.54917 27.2105C3.54917 29.4584 3.86857 31.6825 4.48379 33.8121C4.75589 34.7585 4.22348 35.7405 3.27706 36.0126C3.11146 36.0599 2.94575 36.0836 2.78015 36.0836C2.01113 36.0836 1.30132 35.5749 1.07641 34.8059C0.366917 32.345 0 29.7896 0 27.2105C0 12.2092 12.2093 0 27.2105 0C34.6402 0 41.6439 3.02866 46.7311 8.28146V5.91531C46.7311 4.9334 47.5236 4.14068 48.5057 4.14068C49.4878 4.14078 50.2803 4.9334 50.2803 5.91531Z" fill="#56B8CA"/>
</svg>
