<svg width="33" height="32" viewBox="0 0 33 32" fill="none" xmlns="http://www.w3.org/2000/svg">
<path fill-rule="evenodd" clip-rule="evenodd" d="M24.2143 12.8751C24.2143 18.6051 19.5692 23.2502 13.8392 23.2502C8.1092 23.2502 3.46411 18.6051 3.46411 12.8751C3.46411 7.14508 8.1092 2.5 13.8392 2.5C19.5692 2.5 24.2143 7.14508 24.2143 12.8751ZM22.0166 22.8203C19.7929 24.6509 16.9444 25.7502 13.8392 25.7502C6.72848 25.7502 0.964111 19.9858 0.964111 12.8751C0.964111 5.76437 6.72848 0 13.8392 0C20.9499 0 26.7143 5.76437 26.7143 12.8751C26.7143 15.9803 25.615 18.8287 23.7844 21.0525L32.8201 30.0882L31.0523 31.856L22.0166 22.8203Z" fill="black" fill-opacity="0.8"/>
</svg>
