<svg width="54" height="57" viewBox="0 0 54 57" fill="none" xmlns="http://www.w3.org/2000/svg">
<path d="M14.5551 46.7543C15.226 47.8215 15.5803 49.0511 15.5803 50.3156C15.5803 54.0013 12.5918 57 8.91867 57C5.24555 57 2.25709 54.0013 2.25709 50.3156C2.25709 49.0461 2.6141 47.8116 3.29008 46.7414L7.11317 40.2648C7.49117 39.6247 8.17722 39.2322 8.91867 39.2322C9.65984 39.2322 10.3465 39.6247 10.7242 40.2648L14.5551 46.7543ZM51.9018 12.1778H38.1814V11.89C38.1814 10.7272 37.2421 9.7844 36.0829 9.7844H32.94V7.96093H41.5187C42.6779 7.96093 43.6172 7.01817 43.6172 5.85531V4.66184C43.6169 2.0913 41.5327 0 38.9709 0H19.8664C17.3046 0 15.2204 2.0913 15.2204 4.66184V5.85531C15.2204 7.01817 16.16 7.96093 17.3189 7.96093H25.8979V9.7844H22.7544C21.5955 9.7844 20.656 10.7272 20.656 11.89V12.1778H15.0604C7.46235 12.1778 1.28089 18.3804 1.28089 26.0047V33.0779C0.528249 33.3977 0 34.1459 0 35.0176C0 36.1805 0.939544 37.1232 2.09845 37.1232H3.37934H13.3719H14.5198C15.6787 37.1232 16.6183 36.1805 16.6183 35.0176C16.6183 34.1984 16.151 33.49 15.4703 33.1419V28.3883C15.4703 27.1448 16.4784 26.1333 17.7176 26.1333H20.656V26.8483C20.656 28.0112 21.5955 28.954 22.7544 28.954H36.0826C37.2418 28.954 38.1811 28.0112 38.1811 26.8483V26.756H51.9016C53.0607 26.756 54 25.8132 54 24.6504V14.2834C54.0003 13.1205 53.0607 12.1778 51.9018 12.1778Z" fill="#56B8CA"/>
</svg>
