<svg width="27" height="51" viewBox="0 0 27 51" fill="none" xmlns="http://www.w3.org/2000/svg">
<path d="M22.0166 10.8961L21.6974 10.6241C21.0735 9.89211 21.492 5.64494 22.2075 4.08378C22.5865 3.79667 22.8169 3.451 22.8844 3.05056C22.897 3.00144 22.9066 2.95422 22.9105 2.90322C22.9124 2.87961 22.923 2.85789 22.923 2.83333C22.923 2.78894 22.9047 2.75022 22.9008 2.70772C22.8941 2.65861 22.8892 2.61139 22.8748 2.56322C22.3743 0.196444 15.4604 0 13.2801 0C11.0941 0 4.14932 0.198333 3.68261 2.58306C3.67682 2.60289 3.67586 2.62272 3.672 2.6435C3.66236 2.70772 3.63825 2.76628 3.63825 2.83333C3.63825 2.86733 3.65271 2.89661 3.65561 2.92967C3.6585 2.95611 3.66429 2.97972 3.66911 3.00617C3.72696 3.44344 3.98636 3.81178 4.40679 4.11778C5.22836 5.70161 5.94097 9.89683 5.39614 10.6184L5.08082 10.8828C3.05678 12.5743 0 15.1328 0 19.8333V42.3026C0 47.0985 3.98346 51 8.88011 51H18.1199C23.0165 51 27 47.0985 27 42.3026V19.8333C27 15.1413 24.0011 12.5866 22.0166 10.8961ZM6.26786 27.3889C5.46943 27.3889 4.82143 26.7542 4.82143 25.9722C4.82143 25.1902 5.46943 24.5556 6.26786 24.5556C7.06629 24.5556 7.71429 25.1902 7.71429 25.9722C7.71429 26.7542 7.06629 27.3889 6.26786 27.3889ZM7.71429 36.9183C7.71429 36.397 8.14629 35.9739 8.67857 35.9739C9.21086 35.9739 9.64286 36.397 9.64286 36.9183C9.64286 37.4397 9.21086 37.8628 8.67857 37.8628C8.14629 37.8628 7.71429 37.4397 7.71429 36.9183ZM10.125 46.3628C9.32657 46.3628 8.67857 45.7281 8.67857 44.9461C8.67857 44.1641 9.32657 43.5294 10.125 43.5294C10.9234 43.5294 11.5714 44.1641 11.5714 44.9461C11.5714 45.7281 10.9234 46.3628 10.125 46.3628ZM14.4643 31.1667C13.932 31.1667 13.5 30.7436 13.5 30.2222C13.5 29.7009 13.932 29.2778 14.4643 29.2778C14.9966 29.2778 15.4286 29.7009 15.4286 30.2222C15.4286 30.7436 14.9966 31.1667 14.4643 31.1667ZM17.3571 44.4739C16.8249 44.4739 16.3929 44.0508 16.3929 43.5294C16.3929 43.0081 16.8249 42.585 17.3571 42.585C17.8894 42.585 18.3214 43.0081 18.3214 43.5294C18.3214 44.0508 17.8894 44.4739 17.3571 44.4739ZM21.6964 37.8628C20.898 37.8628 20.25 37.2281 20.25 36.4461C20.25 35.6641 20.898 35.0294 21.6964 35.0294C22.4949 35.0294 23.1429 35.6641 23.1429 36.4461C23.1429 37.2281 22.4949 37.8628 21.6964 37.8628ZM18.0003 25.0164C15.7825 25.2497 13.7131 22.9755 12.365 21.0129C9.38829 16.6779 5.14832 16.5684 2.30368 17.3995C3.06064 15.062 4.83493 13.5717 6.33246 12.3184L6.65261 12.0492C7.26107 11.5364 7.53204 10.5636 7.48286 9.07517C7.44525 7.93522 7.1955 6.41844 6.78954 5.06789C9.08357 5.60056 12.0005 5.66667 13.2801 5.66667C14.5877 5.66667 17.6021 5.59489 19.9164 5.02917C19.6444 6.18044 19.5162 7.38933 19.4844 8.19589C19.4082 10.1462 19.7196 11.4372 20.412 12.0322L20.7514 12.3222C22.5093 13.8201 24.6549 15.657 25.0136 18.8832C22.7697 23.9436 19.3754 24.8616 18.0003 25.0164Z" fill="#56B8CA"/>
</svg>
